<?xml version="1.0" encoding="utf-8"?>
<!-- Generator: Adobe Illustrator 26.5.0, SVG Export Plug-In . SVG Version: 6.00 Build 0)  -->
<svg version="1.1" id="Layer_1" xmlns="http://www.w3.org/2000/svg" xmlns:xlink="http://www.w3.org/1999/xlink" x="0px" y="0px"
	 viewBox="0 0 82.37 22.43" style="enable-background:new 0 0 82.37 22.43;" xml:space="preserve">
<style type="text/css">
	.st0{opacity:0.68;}
	.st1{fill:none;stroke:#000000;stroke-miterlimit:10;}
</style>
<g class="st0">
	<path class="st1" d="M75.23,20.76H6.4c-2.73,0-4.94-2.21-4.94-4.94V6.35c0-2.56,2.08-4.64,4.64-4.64h69.28
		c2.65,0,4.79,2.14,4.79,4.79v9.32C80.18,18.55,77.97,20.76,75.23,20.76z"/>
	<g>
		<path d="M4.88,7.49c0.06,0,0.11,0.01,0.17,0.04C5.11,7.55,5.16,7.59,5.2,7.64l3.31,4.97L8.19,12.6l3.32-4.96
			c0.09-0.12,0.2-0.17,0.32-0.16c0.1,0,0.18,0.03,0.25,0.1s0.1,0.15,0.1,0.26v7.68c0,0.1-0.04,0.18-0.11,0.25
			c-0.07,0.07-0.16,0.11-0.26,0.11c-0.11,0-0.2-0.04-0.28-0.11c-0.07-0.07-0.11-0.16-0.11-0.25V8.58l0.22,0.02l-3.04,4.6
			c-0.02,0.05-0.06,0.09-0.11,0.11c-0.05,0.03-0.1,0.04-0.17,0.03c-0.06,0.01-0.11,0-0.16-0.03c-0.05-0.03-0.09-0.07-0.13-0.11
			L5,8.55L5.23,8.4v7.13c0,0.1-0.03,0.18-0.1,0.25c-0.07,0.07-0.15,0.11-0.26,0.11s-0.19-0.04-0.25-0.11
			c-0.06-0.07-0.1-0.16-0.1-0.25V7.85c0-0.1,0.03-0.18,0.1-0.25S4.77,7.49,4.88,7.49z"/>
		<path d="M19.29,9.75c0.1,0,0.19,0.04,0.26,0.11c0.07,0.07,0.1,0.16,0.1,0.26v5.4c0,0.1-0.04,0.18-0.11,0.25
			c-0.07,0.07-0.16,0.11-0.25,0.11c-0.1,0-0.19-0.04-0.26-0.11c-0.07-0.07-0.1-0.16-0.1-0.25V14.1l0.2-0.1
			c0,0.22-0.06,0.45-0.19,0.68c-0.12,0.23-0.29,0.45-0.51,0.65c-0.22,0.2-0.47,0.36-0.76,0.49s-0.61,0.19-0.94,0.19
			c-0.54,0-1.03-0.14-1.46-0.42c-0.43-0.28-0.76-0.66-1.01-1.15c-0.24-0.49-0.37-1.04-0.37-1.64c0-0.62,0.12-1.17,0.37-1.65
			c0.25-0.48,0.58-0.85,1.01-1.12c0.42-0.27,0.9-0.41,1.44-0.41c0.34,0,0.67,0.06,0.97,0.18c0.3,0.12,0.56,0.28,0.79,0.49
			c0.22,0.21,0.4,0.45,0.52,0.71c0.12,0.27,0.19,0.55,0.19,0.83l-0.25-0.18v-1.52c0-0.1,0.03-0.19,0.1-0.26
			C19.1,9.79,19.19,9.75,19.29,9.75z M16.8,15.33c0.42,0,0.8-0.11,1.13-0.33c0.33-0.22,0.59-0.52,0.77-0.91s0.28-0.82,0.28-1.3
			c0-0.47-0.09-0.9-0.28-1.27c-0.19-0.38-0.45-0.68-0.77-0.9c-0.33-0.22-0.7-0.34-1.13-0.34c-0.42,0-0.79,0.11-1.12,0.32
			c-0.33,0.22-0.59,0.51-0.78,0.89s-0.28,0.81-0.28,1.3c0,0.48,0.09,0.91,0.28,1.3s0.45,0.69,0.77,0.91
			C16,15.22,16.37,15.33,16.8,15.33z"/>
		<path d="M21.14,9.78h2.8c0.1,0,0.18,0.03,0.24,0.1s0.1,0.15,0.1,0.25c0,0.09-0.03,0.16-0.1,0.23c-0.06,0.06-0.14,0.1-0.24,0.1
			h-2.8c-0.1,0-0.18-0.03-0.25-0.1c-0.07-0.07-0.1-0.15-0.1-0.23c0-0.1,0.03-0.18,0.1-0.24C20.96,9.81,21.04,9.78,21.14,9.78z
			 M22.38,8.09c0.1,0,0.19,0.04,0.26,0.11c0.07,0.07,0.1,0.16,0.1,0.25v6.02c0,0.22,0.03,0.39,0.09,0.5
			c0.06,0.11,0.14,0.19,0.23,0.22c0.1,0.04,0.19,0.05,0.29,0.05c0.06,0,0.12-0.01,0.17-0.03c0.05-0.02,0.11-0.03,0.17-0.03
			c0.07,0,0.13,0.03,0.19,0.08c0.05,0.06,0.08,0.13,0.08,0.22c0,0.11-0.06,0.21-0.19,0.28c-0.13,0.08-0.28,0.11-0.46,0.11
			c-0.07,0-0.18-0.01-0.32-0.02c-0.14-0.01-0.29-0.06-0.44-0.13c-0.15-0.08-0.28-0.21-0.38-0.4c-0.1-0.19-0.15-0.47-0.15-0.83V8.45
			c0-0.1,0.03-0.18,0.1-0.25C22.18,8.12,22.27,8.09,22.38,8.09z"/>
		<path d="M25.21,9.78H28c0.1,0,0.18,0.03,0.24,0.1s0.1,0.15,0.1,0.25c0,0.09-0.03,0.16-0.1,0.23c-0.06,0.06-0.14,0.1-0.24,0.1h-2.8
			c-0.1,0-0.18-0.03-0.25-0.1c-0.07-0.07-0.1-0.15-0.1-0.23c0-0.1,0.03-0.18,0.1-0.24C25.03,9.81,25.11,9.78,25.21,9.78z
			 M26.44,8.09c0.1,0,0.19,0.04,0.26,0.11c0.07,0.07,0.1,0.16,0.1,0.25v6.02c0,0.22,0.03,0.39,0.09,0.5
			c0.06,0.11,0.14,0.19,0.23,0.22c0.1,0.04,0.19,0.05,0.29,0.05c0.06,0,0.12-0.01,0.17-0.03c0.05-0.02,0.11-0.03,0.17-0.03
			c0.07,0,0.13,0.03,0.19,0.08c0.05,0.06,0.08,0.13,0.08,0.22c0,0.11-0.06,0.21-0.19,0.28c-0.13,0.08-0.28,0.11-0.46,0.11
			c-0.07,0-0.18-0.01-0.32-0.02c-0.14-0.01-0.29-0.06-0.44-0.13c-0.15-0.08-0.28-0.21-0.38-0.4c-0.1-0.19-0.15-0.47-0.15-0.83V8.45
			c0-0.1,0.03-0.18,0.1-0.25C26.25,8.12,26.34,8.09,26.44,8.09z"/>
		<path d="M35.44,16.01c-0.61,0.01-1.14-0.09-1.58-0.29c-0.45-0.2-0.88-0.5-1.28-0.9c-0.04-0.03-0.07-0.07-0.1-0.12
			c-0.03-0.05-0.04-0.1-0.04-0.17c0-0.1,0.04-0.18,0.11-0.26c0.08-0.08,0.16-0.12,0.26-0.12c0.1,0,0.18,0.04,0.26,0.12
			c0.31,0.34,0.67,0.59,1.06,0.77c0.4,0.18,0.82,0.26,1.28,0.26c0.38,0,0.73-0.06,1.03-0.18c0.3-0.12,0.54-0.29,0.71-0.52
			c0.18-0.22,0.26-0.48,0.26-0.78c0-0.37-0.1-0.67-0.3-0.89c-0.2-0.23-0.46-0.42-0.79-0.56s-0.69-0.28-1.09-0.4
			c-0.33-0.1-0.64-0.21-0.94-0.33s-0.56-0.28-0.79-0.46s-0.41-0.4-0.54-0.67s-0.19-0.58-0.19-0.96c0-0.42,0.11-0.8,0.34-1.13
			c0.22-0.33,0.54-0.59,0.95-0.77c0.41-0.19,0.89-0.28,1.43-0.28c0.47,0,0.93,0.08,1.36,0.24c0.44,0.16,0.78,0.4,1.04,0.71
			c0.12,0.13,0.18,0.24,0.18,0.35c0,0.08-0.04,0.16-0.12,0.24c-0.08,0.08-0.17,0.12-0.26,0.12c-0.08,0-0.15-0.03-0.2-0.08
			c-0.14-0.17-0.31-0.32-0.52-0.45s-0.44-0.23-0.69-0.31c-0.25-0.07-0.51-0.11-0.79-0.11c-0.38,0-0.71,0.06-1.01,0.17
			c-0.3,0.12-0.54,0.28-0.71,0.5c-0.17,0.22-0.26,0.48-0.26,0.78c0,0.34,0.1,0.61,0.29,0.83c0.19,0.22,0.44,0.39,0.76,0.53
			c0.31,0.14,0.64,0.27,1,0.39c0.34,0.1,0.67,0.21,0.99,0.33s0.6,0.28,0.84,0.46s0.44,0.42,0.58,0.7c0.14,0.28,0.21,0.63,0.21,1.06
			c0,0.41-0.12,0.78-0.35,1.1s-0.55,0.59-0.95,0.78C36.46,15.9,35.99,16,35.44,16.01z"/>
		<path d="M42.39,9.61c0.38,0,0.74,0.04,1.06,0.13c0.32,0.08,0.58,0.2,0.77,0.34c0.2,0.14,0.29,0.3,0.29,0.47
			c0,0.08-0.03,0.16-0.08,0.23c-0.06,0.08-0.13,0.11-0.23,0.11s-0.17-0.02-0.23-0.07s-0.12-0.1-0.18-0.17s-0.15-0.12-0.26-0.18
			c-0.1-0.05-0.25-0.09-0.44-0.13c-0.19-0.04-0.41-0.06-0.66-0.06c-0.45,0-0.85,0.11-1.21,0.34c-0.36,0.22-0.64,0.53-0.85,0.91
			s-0.31,0.81-0.31,1.28c0,0.48,0.1,0.91,0.3,1.3c0.2,0.38,0.48,0.69,0.83,0.91c0.35,0.22,0.76,0.33,1.24,0.33
			c0.32,0,0.57-0.03,0.74-0.08c0.18-0.06,0.33-0.12,0.46-0.19c0.15-0.09,0.26-0.17,0.33-0.26c0.07-0.08,0.16-0.13,0.27-0.13
			c0.1,0,0.18,0.03,0.23,0.09c0.05,0.06,0.08,0.14,0.08,0.23c0,0.13-0.09,0.27-0.28,0.43c-0.19,0.16-0.45,0.29-0.77,0.41
			c-0.33,0.12-0.7,0.17-1.13,0.17c-0.6,0-1.13-0.14-1.58-0.42c-0.45-0.28-0.8-0.66-1.06-1.15c-0.25-0.48-0.38-1.03-0.38-1.64
			c0-0.58,0.13-1.12,0.38-1.6c0.26-0.48,0.61-0.87,1.07-1.16S41.78,9.61,42.39,9.61z"/>
		<path d="M46.24,8.84c-0.17,0-0.29-0.04-0.38-0.11c-0.08-0.08-0.13-0.19-0.13-0.33V8.28c0-0.14,0.05-0.25,0.14-0.33
			c0.09-0.08,0.22-0.11,0.38-0.11c0.15,0,0.27,0.04,0.35,0.11c0.08,0.08,0.13,0.19,0.13,0.33V8.4c0,0.14-0.04,0.25-0.13,0.33
			C46.52,8.8,46.4,8.84,46.24,8.84z M46.6,15.53c0,0.1-0.04,0.18-0.11,0.25c-0.07,0.07-0.16,0.11-0.25,0.11
			c-0.1,0-0.19-0.04-0.26-0.11c-0.07-0.07-0.1-0.16-0.1-0.25v-5.52c0-0.1,0.03-0.18,0.1-0.25c0.07-0.07,0.15-0.11,0.26-0.11
			c0.1,0,0.19,0.04,0.26,0.11c0.07,0.07,0.1,0.16,0.1,0.25V15.53z"/>
		<path d="M53.06,9.79c0.1,0,0.19,0.04,0.26,0.11c0.07,0.07,0.1,0.16,0.1,0.25v3.38c0,0.79-0.22,1.4-0.67,1.81
			c-0.45,0.42-1.05,0.62-1.81,0.62c-0.75,0-1.35-0.21-1.79-0.62c-0.44-0.42-0.67-1.02-0.67-1.81v-3.38c0-0.1,0.03-0.18,0.1-0.25
			c0.07-0.07,0.15-0.11,0.26-0.11s0.19,0.04,0.26,0.11c0.07,0.07,0.1,0.16,0.1,0.25v3.38c0,0.58,0.15,1.01,0.46,1.31
			c0.31,0.3,0.73,0.45,1.28,0.45c0.55,0,0.98-0.15,1.3-0.45c0.31-0.3,0.47-0.74,0.47-1.31v-3.38c0-0.1,0.03-0.18,0.1-0.25
			C52.86,9.83,52.95,9.79,53.06,9.79z"/>
		<path d="M58.22,9.61c0.54,0,1.03,0.14,1.45,0.41c0.42,0.27,0.75,0.65,1,1.12c0.25,0.48,0.37,1.03,0.37,1.65
			c0,0.61-0.12,1.16-0.37,1.64c-0.25,0.49-0.58,0.87-1.01,1.15c-0.42,0.28-0.9,0.42-1.43,0.42c-0.28,0-0.55-0.04-0.8-0.13
			c-0.25-0.09-0.48-0.21-0.69-0.35c-0.21-0.15-0.39-0.32-0.55-0.52c-0.16-0.2-0.29-0.42-0.38-0.65l0.22-0.16v1.36
			c0,0.1-0.03,0.19-0.1,0.26c-0.07,0.07-0.15,0.1-0.26,0.1s-0.19-0.03-0.26-0.1c-0.07-0.07-0.1-0.15-0.1-0.26V7.38
			c0-0.1,0.03-0.19,0.1-0.26c0.06-0.07,0.15-0.1,0.26-0.1c0.1,0,0.19,0.03,0.26,0.1c0.07,0.07,0.1,0.15,0.1,0.26v4.02l-0.17-0.1
			c0.08-0.25,0.2-0.47,0.35-0.68c0.16-0.2,0.34-0.38,0.55-0.53s0.44-0.27,0.68-0.35S57.95,9.61,58.22,9.61z M58.16,10.28
			c-0.43,0-0.81,0.11-1.14,0.32c-0.33,0.22-0.59,0.51-0.77,0.89c-0.19,0.38-0.28,0.81-0.28,1.3c0,0.48,0.09,0.91,0.28,1.3
			c0.19,0.39,0.45,0.69,0.77,0.91c0.33,0.22,0.71,0.33,1.14,0.33c0.42,0,0.8-0.11,1.12-0.34c0.32-0.22,0.58-0.53,0.77-0.92
			c0.19-0.39,0.29-0.82,0.29-1.29c0-0.49-0.1-0.92-0.29-1.3c-0.19-0.38-0.45-0.67-0.77-0.89C58.96,10.39,58.58,10.28,58.16,10.28z"
			/>
		<path d="M65.49,9.61c0.54,0,1.03,0.14,1.45,0.41c0.42,0.27,0.75,0.65,1,1.12c0.25,0.48,0.37,1.03,0.37,1.65
			c0,0.61-0.12,1.16-0.37,1.64c-0.25,0.49-0.58,0.87-1.01,1.15c-0.42,0.28-0.9,0.42-1.43,0.42c-0.28,0-0.55-0.04-0.8-0.13
			c-0.25-0.09-0.48-0.21-0.69-0.35c-0.21-0.15-0.39-0.32-0.55-0.52c-0.16-0.2-0.29-0.42-0.38-0.65l0.22-0.16v1.36
			c0,0.1-0.03,0.19-0.1,0.26c-0.07,0.07-0.15,0.1-0.26,0.1s-0.19-0.03-0.26-0.1c-0.07-0.07-0.1-0.15-0.1-0.26V7.38
			c0-0.1,0.03-0.19,0.1-0.26c0.06-0.07,0.15-0.1,0.26-0.1c0.1,0,0.19,0.03,0.26,0.1c0.07,0.07,0.1,0.15,0.1,0.26v4.02l-0.17-0.1
			c0.08-0.25,0.2-0.47,0.35-0.68c0.16-0.2,0.34-0.38,0.55-0.53s0.44-0.27,0.68-0.35S65.22,9.61,65.49,9.61z M65.43,10.28
			c-0.43,0-0.81,0.11-1.14,0.32c-0.33,0.22-0.59,0.51-0.77,0.89c-0.19,0.38-0.28,0.81-0.28,1.3c0,0.48,0.09,0.91,0.28,1.3
			c0.19,0.39,0.45,0.69,0.77,0.91c0.33,0.22,0.71,0.33,1.14,0.33c0.42,0,0.8-0.11,1.12-0.34c0.32-0.22,0.58-0.53,0.77-0.92
			c0.19-0.39,0.29-0.82,0.29-1.29c0-0.49-0.1-0.92-0.29-1.3c-0.19-0.38-0.45-0.67-0.77-0.89C66.23,10.39,65.85,10.28,65.43,10.28z"
			/>
		<path d="M74.87,9.75c0.1,0,0.19,0.04,0.26,0.11c0.07,0.07,0.1,0.16,0.1,0.26v5.4c0,0.1-0.04,0.18-0.11,0.25
			c-0.07,0.07-0.16,0.11-0.25,0.11c-0.1,0-0.19-0.04-0.26-0.11c-0.07-0.07-0.1-0.16-0.1-0.25V14.1l0.2-0.1
			c0,0.22-0.06,0.45-0.19,0.68c-0.12,0.23-0.29,0.45-0.51,0.65c-0.22,0.2-0.47,0.36-0.76,0.49s-0.61,0.19-0.94,0.19
			c-0.54,0-1.03-0.14-1.46-0.42c-0.43-0.28-0.76-0.66-1.01-1.15c-0.24-0.49-0.37-1.04-0.37-1.64c0-0.62,0.12-1.17,0.37-1.65
			c0.25-0.48,0.58-0.85,1.01-1.12c0.42-0.27,0.9-0.41,1.44-0.41c0.34,0,0.67,0.06,0.97,0.18c0.3,0.12,0.56,0.28,0.79,0.49
			c0.22,0.21,0.4,0.45,0.52,0.71c0.12,0.27,0.19,0.55,0.19,0.83l-0.25-0.18v-1.52c0-0.1,0.03-0.19,0.1-0.26
			C74.68,9.79,74.77,9.75,74.87,9.75z M72.38,15.33c0.42,0,0.8-0.11,1.13-0.33c0.33-0.22,0.59-0.52,0.77-0.91s0.28-0.82,0.28-1.3
			c0-0.47-0.09-0.9-0.28-1.27c-0.19-0.38-0.45-0.68-0.77-0.9c-0.33-0.22-0.7-0.34-1.13-0.34c-0.42,0-0.79,0.11-1.12,0.32
			c-0.33,0.22-0.59,0.51-0.78,0.89s-0.28,0.81-0.28,1.3c0,0.48,0.09,0.91,0.28,1.3s0.45,0.69,0.77,0.91
			C71.58,15.22,71.95,15.33,72.38,15.33z"/>
	</g>
</g>
</svg>
